<svg width="454" height="464" viewBox="0 0 454 464" fill="none" xmlns="http://www.w3.org/2000/svg">
<rect width="454" height="464" fill="white"/>
<path d="M227.172 423.345C278.396 423.345 326.417 403.679 362.548 367.548C398.679 331.417 418.345 283.396 418.345 232.172C418.345 180.949 398.679 132.927 362.548 96.7967C326.417 60.666 278.396 41 227.172 41C175.949 41 127.927 60.666 91.7967 96.7967C55.666 132.927 36 180.949 36 232.172C36 283.396 55.666 331.417 91.7967 367.548C127.927 403.679 175.949 423.345 227.172 423.345ZM238.149 390.873C234.49 391.33 230.831 391.33 227.172 391.33C222.142 391.33 217.111 390.873 212.08 390.416C195.615 364.804 183.267 337.363 175.949 308.55H256.9C259.644 315.41 264.675 321.813 270.621 325.929C262.846 348.797 251.869 370.292 238.149 390.873V390.873ZM281.597 381.726C290.287 365.719 297.147 349.711 302.635 332.789C315.898 330.045 326.417 320.898 331.448 308.55H366.664C348.37 341.937 317.728 368.006 281.597 381.726ZM385.873 232.172C385.873 247.265 383.586 261.9 379.927 276.078H330.534C327.79 270.133 323.216 264.644 317.728 260.528C318.643 250.466 319.1 240.405 319.1 230.343C319.1 216.165 318.185 201.987 316.356 188.267H379.47C384.044 201.987 385.873 217.08 385.873 232.172V232.172ZM366.664 155.795H310.868C304.922 130.641 296.232 106.858 284.341 83.991C319.1 97.2541 348.37 123.323 366.664 155.795ZM287.085 230.343C287.085 238.118 286.628 245.893 286.171 253.668C273.365 256.412 262.846 264.644 257.815 276.078H169.546C167.717 262.358 166.345 248.18 166.345 234.459C166.345 225.77 166.802 217.08 167.717 208.39C179.608 206.103 189.212 198.328 195.158 188.267H284.341C286.171 201.987 287.085 216.165 287.085 230.343V230.343ZM215.281 73.9292C219.397 73.4719 223.514 73.4719 227.172 73.4719C231.746 73.4719 236.319 73.4719 240.893 73.9292C257.358 99.5408 269.706 126.982 277.024 155.795H197.445C194.701 148.02 189.67 141.16 183.267 136.129C191.499 114.176 202.018 93.5953 215.281 73.9292ZM171.833 83.0762C164.058 97.7114 157.198 113.261 151.71 128.811C137.532 131.555 126.098 142.074 121.524 155.338H88.138C105.975 122.866 135.702 96.7967 171.833 83.0762ZM68.4719 232.172C68.4719 217.08 70.7586 201.987 74.8748 188.267H124.726C127.47 193.298 131.586 197.871 136.16 201.53C135.245 212.506 134.33 223.483 134.33 234.459C134.33 248.637 135.245 262.358 137.074 276.078H74.8748C70.3013 261.9 68.4719 247.265 68.4719 232.172ZM142.563 308.093C148.508 332.79 157.198 357.029 169.089 379.896C134.33 366.176 105.517 340.564 87.6806 308.093H142.563Z" fill="#091F43"/>
</svg>
